# xmcd CD database file
#
# Track frame offsets:
#	150
#	30554
#	56698
#	77234
#	95672
#	114541
#	134065
#	152544
#	210737
#	226270
#	257115
#
# Disc length: 3966 seconds
#
# Revision: 0
# Processed by: cddbd v1.5PL3 Copyright (c) Steve Scherf et al.
# Submitted via: CDex 1.50
#
DISCID=950f7c0b
DTITLE=LINDBERG - Final Flight [CD2]
DYEAR=2002
DGENRE=Rock
TTITLE0=Glory Days (LIVE)
TTITLE1=Voice Of Angel (LIVE)
TTITLE2=Time (LIVE)
TTITLE3=もっと愛しあいましょ (LIVE)
TTITLE4=恋をしようよ Yeah! Yeah! (LIVE)
TTITLE5=GAMBAらなくちゃね (LIVE)
TTITLE6=Believe In Love (LIVE)
TTITLE7=Over The Top (LIVE)
TTITLE8=今すぐKiss Me (LIVE)
TTITLE9=Dream On 抱きしめて (LIVE)
TTITLE10=Mine (LIVE)
EXTD=YEAR: 2002
EXTT0=
EXTT1=
EXTT2=
EXTT3=
EXTT4=
EXTT5=
EXTT6=
EXTT7=
EXTT8=
EXTT9=
EXTT10=
PLAYORDER=
